<svg xmlns="http://www.w3.org/2000/svg" viewBox="0 0 753 387" font-weight="normal" text-decoration="none" width="753px" xmlns:xlink="http://www.w3.org/1999/xlink" font-size="15" font-family="sans-serif" font-style="normal" version="1.1" height="387px">
  <title>Temperature on Tuesday, January 7, 2025 in Abu Dhabi</title>
  <!-- Added white background -->
  <rect x="0" y="0" width="753" height="387" fill="white"/>
  <defs>
    <clipPath id="plot-sample-bounds-6">
      <rect x="85.8" width="581.5" y="0" height="365"></rect>
    </clipPath>
    <clipPath id="plot-sample-bounds-scaled-6">
      <rect x="857.7" width="5814.6" y="0" height="3650"></rect>
    </clipPath>
  </defs><g transform="scale(0.1)"></g><g><rect x="85.8" width="21.5" y="30" fill="#e9cc77" fill-opacity="1.000" stroke="none" height="25"></rect></g><g><rect x="107.3" width="215.4" y="30" fill="#8dbf71" fill-opacity="1.000" stroke="none" height="25"></rect><text text-anchor="middle" x="215" y="46.3">cool</text></g><g><rect x="322.7" width="43.1" y="30" fill="#e9cc77" fill-opacity="1.000" stroke="none" height="25"></rect></g><g><rect x="365.7" width="129.2" y="30" fill="#c77560" fill-opacity="1.000" stroke="none" height="25"></rect><text text-anchor="middle" x="430.3" y="46.3">warm</text></g><g><rect x="494.9" width="129.2" y="30" fill="#e9cc77" fill-opacity="1.000" stroke="none" height="25"></rect><text text-anchor="middle" x="559.6" y="46.3">comfortable</text></g><g><rect x="624.2" width="43.1" y="30" fill="#8dbf71" fill-opacity="1.000" stroke="none" height="25"></rect><text text-anchor="middle" x="645.7" y="46.3">cool</text></g><g transform="scale(0.1)"><path d="M858,2570l215,87l215,95l216,85l215,62l215,84l216,75l215,55l216,52l215,-32l215,-202l216,-319l215,-317l215,-238l216,-112l215,-47l215,-6l216,23l215,66l215,95l216,120l215,114l216,95l215,90l215,87l216,86l215,96l215,87l0,-803l-215,-48l-215,-55l-216,-57l-215,-57l-215,-93l-216,-99l-215,-144l-216,-206l-215,-190l-215,-95l-216,-19l-215,46l-215,95l-216,169l-215,255l-215,275l-216,223l-215,125l-215,6l-216,-36l-215,-11l-216,-25l-215,-34l-215,-29l-216,-49l-215,-57l-215,-54Z" fill="#492e68" fill-opacity="0.125" stroke="none"></path><path d="M858,2407l215,84l215,89l216,75l215,64l215,68l216,67l215,65l216,33l215,-17l215,-182l216,-313l215,-331l215,-230l216,-122l215,-46l215,-11l216,36l215,74l215,114l216,133l215,109l216,89l215,80l215,82l216,89l215,85l215,71l0,-411l-215,-49l-215,-70l-216,-56l-215,-60l-215,-67l-216,-84l-215,-121l-216,-164l-215,-163l-215,-105l-216,-34l-215,13l-215,88l-216,150l-215,232l-215,260l-216,278l-215,133l-215,21l-216,-36l-215,-25l-216,-65l-215,-41l-215,-42l-216,-48l-215,-72l-215,-57Z" fill="#492e68" fill-opacity="0.125" stroke="none"></path><g clip-path="url(#plot-sample-bounds-scaled-6)"><path stroke-opacity="0.3764705882352941" d="M858,2234l54,17l53,17l54,18l54,17l54,19l54,19l54,18l53,18l54,17l54,17l54,16l54,16l54,13l53,13l54,13l54,13l54,15l54,15l54,16l53,15l54,16l54,16l54,15l54,14l54,12l54,11l53,10l54,10l54,11l54,10l54,10l54,5l53,3l54,1l54,-5l54,-15l54,-26l54,-36l53,-43l54,-52l54,-63l54,-73l54,-77l54,-76l53,-76l54,-77l54,-76l54,-71l54,-65l54,-62l53,-57l54,-50l54,-42l54,-36l54,-30l54,-27l54,-22l53,-18l54,-14l54,-11l54,-9l54,-6l54,-3l53,1l54,4l54,7l54,10l54,13l54,15l53,18l54,22l54,25l54,29l54,33l54,35l53,36l54,37l54,39l54,39l54,36l54,33l54,31l53,29l54,28l54,25l54,23l54,21l54,21l53,21l54,21l54,20l54,19l54,18l54,17l53,17l54,17l54,17l54,18l54,17l54,18l53,18l54,19l54,19l54,18l54,17l54,16l53,16l54,16" stroke-width="20" fill="none" stroke="#6b5980"></path></g><g clip-path="url(#plot-sample-bounds-scaled-6)"><path stroke-opacity="1.0" d="M750,1995l215,135l216,135l215,135l215,135l216,0l215,0l216,135l215,135l215,135l216,-135l215,-270l215,-405l216,-405l215,-405l215,-135l216,0l215,0l215,135l216,0l215,270l216,135l215,135l215,135l216,0l215,0l215,270l216,135l215,-135" stroke-width="5" fill="none" stroke="#000"></path></g><g fill="#000" stroke="none"><circle r="20" cx="965.4" cy="2130.4" fill="#000" stroke="none"></circle><circle r="20" cx="1180.7" cy="2265.4" fill="#000" stroke="none"></circle><circle r="20" cx="1396.1" cy="2400.4" fill="#000" stroke="none"></circle><circle r="20" cx="1611.4" cy="2535.4" fill="#000" stroke="none"></circle><circle r="20" cx="1826.8" cy="2535.4" fill="#000" stroke="none"></circle><circle r="20" cx="2042.1" cy="2535.4" fill="#000" stroke="none"></circle><circle r="20" cx="2257.5" cy="2670.4" fill="#000" stroke="none"></circle><circle r="20" cx="2472.9" cy="2805.4" fill="#000" stroke="none"></circle><circle r="20" cx="2688.2" cy="2940.4" fill="#000" stroke="none"></circle><circle r="20" cx="2903.6" cy="2805.4" fill="#000" stroke="none"></circle><circle r="20" cx="3118.9" cy="2535.4" fill="#000" stroke="none"></circle><circle r="20" cx="3334.3" cy="2130.4" fill="#000" stroke="none"></circle><circle r="20" cx="3549.6" cy="1725.4" fill="#000" stroke="none"></circle><circle r="20" cx="3765" cy="1320.4" fill="#000" stroke="none"></circle><circle r="20" cx="3980.4" cy="1185.4" fill="#000" stroke="none"></circle><circle r="20" cx="4195.7" cy="1185.4" fill="#000" stroke="none"></circle><circle r="20" cx="4411.1" cy="1185.4" fill="#000" stroke="none"></circle><circle r="20" cx="4626.4" cy="1320.4" fill="#000" stroke="none"></circle><circle r="20" cx="4841.8" cy="1320.4" fill="#000" stroke="none"></circle><circle r="20" cx="5057.1" cy="1590.4" fill="#000" stroke="none"></circle><circle r="20" cx="5272.5" cy="1725.4" fill="#000" stroke="none"></circle><circle r="20" cx="5487.9" cy="1860.4" fill="#000" stroke="none"></circle><circle r="20" cx="5703.2" cy="1995.4" fill="#000" stroke="none"></circle><circle r="20" cx="5918.6" cy="1995.4" fill="#000" stroke="none"></circle><circle r="20" cx="6133.9" cy="1995.4" fill="#000" stroke="none"></circle><circle r="20" cx="6349.3" cy="2265.4" fill="#000" stroke="none"></circle><circle r="20" cx="6564.6" cy="2400.4" fill="#000" stroke="none"></circle></g><g clip-path="url(#plot-sample-bounds-scaled-6)" stroke-dasharray="10 20"><path stroke-opacity="1.0" d="M750,2029l215,140l216,124l215,139l215,123l216,0l215,0l216,138l215,136l215,135l216,-129l215,-260l215,-362l216,-390l215,-403l215,-137l216,0l215,0l215,137l216,-6l215,246l216,93l215,123l215,123l216,0l215,0l215,276l216,132l215,-132" stroke-width="5" fill="none" stroke="#000"></path></g></g><g><rect x="85.8" width="42.6" y="5" fill="#000" fill-opacity="0.188" stroke="none" height="360"></rect></g><g><rect x="128.3" width="134.4" y="5" fill="#000" fill-opacity="0.188" stroke="none" height="360"></rect><text text-anchor="middle" x="195.6" y="23.7" opacity="1" fill="#000">night</text></g><g><rect x="262.8" width="8.9" y="5" fill="#000" fill-opacity="0.125" stroke="none" height="360"></rect></g><g><text text-anchor="middle" x="386.9" y="23.7" opacity="1" fill="#000">day</text></g><g><rect x="502.1" width="8.9" y="5" fill="#000" fill-opacity="0.125" stroke="none" height="360"></rect></g><g><rect x="511" width="134.4" y="5" fill="#000" fill-opacity="0.188" stroke="none" height="360"></rect><text text-anchor="middle" x="578.2" y="23.7" opacity="1" fill="#000">night</text></g><g><rect x="645.4" width="21.9" y="5" fill="#000" fill-opacity="0.188" stroke="none" height="360"></rect></g><g><rect x="118.1" width="0" y="30" fill="#000" fill-opacity="0.004" stroke="none" height="335"></rect></g><g><rect x="118.1" width="21.5" y="30" fill="#000" fill-opacity="0.004" stroke="none" height="335"></rect></g><g><rect x="139.6" width="21.5" y="30" fill="#000" fill-opacity="0.004" stroke="none" height="335"></rect></g><g><rect x="161.1" width="21.5" y="30" fill="#000" fill-opacity="0.004" stroke="none" height="335"></rect></g><g><rect x="182.7" width="21.5" y="30" fill="#000" fill-opacity="0.004" stroke="none" height="335"></rect></g><g><rect x="204.2" width="21.5" y="30" fill="#000" fill-opacity="0.004" stroke="none" height="335"></rect></g><g><rect x="225.8" width="21.5" y="30" fill="#000" fill-opacity="0.004" stroke="none" height="335"></rect></g><g><rect x="247.3" width="21.5" y="30" fill="#000" fill-opacity="0.004" stroke="none" height="335"></rect></g><g><rect x="268.8" width="21.5" y="30" fill="#000" fill-opacity="0.004" stroke="none" height="335"></rect></g><g><rect x="290.4" width="21.5" y="30" fill="#000" fill-opacity="0.004" stroke="none" height="335"></rect></g><g><rect x="311.9" width="21.5" y="30" fill="#000" fill-opacity="0.004" stroke="none" height="335"></rect></g><g><rect x="333.4" width="21.5" y="30" fill="#000" fill-opacity="0.004" stroke="none" height="335"></rect></g><g><rect x="355" width="21.5" y="30" fill="#000" fill-opacity="0.004" stroke="none" height="335"></rect></g><g><rect x="376.5" width="21.5" y="30" fill="#000" fill-opacity="0.004" stroke="none" height="335"></rect></g><g><rect x="398" width="21.5" y="30" fill="#000" fill-opacity="0.004" stroke="none" height="335"></rect></g><g><rect x="419.6" width="21.5" y="30" fill="#000" fill-opacity="0.004" stroke="none" height="335"></rect></g><g><rect x="441.1" width="21.5" y="30" fill="#000" fill-opacity="0.004" stroke="none" height="335"></rect></g><g><rect x="462.6" width="21.5" y="30" fill="#000" fill-opacity="0.004" stroke="none" height="335"></rect></g><g><rect x="484.2" width="21.5" y="30" fill="#000" fill-opacity="0.004" stroke="none" height="335"></rect></g><g><rect x="505.7" width="21.5" y="30" fill="#000" fill-opacity="0.004" stroke="none" height="335"></rect></g><g><rect x="527.3" width="21.5" y="30" fill="#000" fill-opacity="0.004" stroke="none" height="335"></rect></g><g><rect x="548.8" width="21.5" y="30" fill="#000" fill-opacity="0.004" stroke="none" height="335"></rect></g><g><rect x="570.3" width="21.5" y="30" fill="#000" fill-opacity="0.004" stroke="none" height="335"></rect></g><g><rect x="591.9" width="21.5" y="30" fill="#000" fill-opacity="0.004" stroke="none" height="335"></rect></g><g><rect x="613.4" width="21.5" y="30" fill="#000" fill-opacity="0.004" stroke="none" height="335"></rect></g><g><rect x="634.9" width="0" y="30" fill="#000" fill-opacity="0.004" stroke="none" height="335"></rect></g><g stroke-opacity="0.072" stroke-width="1" fill="none" stroke="#000"><line y1="30" x1="96.5" y2="370" x2="96.5"></line><line stroke-opacity="0.12" y1="30" x1="118.1" y2="370" x2="118.1"></line><line y1="30" x1="139.6" y2="370" x2="139.6"></line><line y1="30" x1="161.1" y2="370" x2="161.1"></line><line stroke-opacity="0.12" y1="30" x1="182.7" y2="370" x2="182.7"></line><line y1="30" x1="204.2" y2="370" x2="204.2"></line><line y1="30" x1="225.8" y2="370" x2="225.8"></line><line stroke-opacity="0.12" y1="30" x1="247.3" y2="370" x2="247.3"></line><line y1="30" x1="268.8" y2="370" x2="268.8"></line><line y1="30" x1="290.4" y2="370" x2="290.4"></line><line stroke-opacity="0.12" y1="30" x1="311.9" y2="370" x2="311.9"></line><line y1="30" x1="333.4" y2="370" x2="333.4"></line><line y1="30" x1="355" y2="370" x2="355"></line><line stroke-opacity="0.12" y1="30" x1="376.5" y2="370" x2="376.5"></line><line y1="30" x1="398" y2="370" x2="398"></line><line y1="30" x1="419.6" y2="370" x2="419.6"></line><line stroke-opacity="0.12" y1="30" x1="441.1" y2="370" x2="441.1"></line><line y1="30" x1="462.6" y2="370" x2="462.6"></line><line y1="30" x1="484.2" y2="370" x2="484.2"></line><line stroke-opacity="0.12" y1="30" x1="505.7" y2="370" x2="505.7"></line><line y1="30" x1="527.3" y2="370" x2="527.3"></line><line y1="30" x1="548.8" y2="370" x2="548.8"></line><line stroke-opacity="0.12" y1="30" x1="570.3" y2="370" x2="570.3"></line><line y1="30" x1="591.9" y2="370" x2="591.9"></line><line y1="30" x1="613.4" y2="370" x2="613.4"></line><line stroke-opacity="0.12" y1="30" x1="634.9" y2="370" x2="634.9"></line><line y1="30" x1="656.5" y2="370" x2="656.5"></line><line y1="361.5" x1="72" y2="361.5" x2="681"></line><line y1="334.5" x1="72" y2="334.5" x2="681"></line><line y1="307.5" x1="72" y2="307.5" x2="681"></line><line y1="280.5" x1="72" y2="280.5" x2="681"></line><line y1="253.5" x1="72" y2="253.5" x2="681"></line><line y1="226.5" x1="72" y2="226.5" x2="681"></line><line y1="199.5" x1="72" y2="199.5" x2="681"></line><line y1="172.5" x1="72" y2="172.5" x2="681"></line><line y1="145.5" x1="72" y2="145.5" x2="681"></line><line y1="118.5" x1="72" y2="118.5" x2="681"></line><line y1="91.5" x1="72" y2="91.5" x2="681"></line><line y1="64.5" x1="72" y2="64.5" x2="681"></line><line y1="37.5" x1="72" y2="37.5" x2="681"></line></g><g></g><text text-anchor="middle" x="118.1" y="380.7" stroke="none">12 AM</text><g></g><text text-anchor="middle" x="182.7" y="380.7" stroke="none">3 AM</text><g></g><text text-anchor="middle" x="247.3" y="380.7" stroke="none">6 AM</text><g></g><text text-anchor="middle" x="311.9" y="380.7" stroke="none">9 AM</text><g></g><text text-anchor="middle" x="376.5" y="380.7" stroke="none">12 PM</text><g></g><text text-anchor="middle" x="441.1" y="380.7" stroke="none">3 PM</text><g></g><text text-anchor="middle" x="505.7" y="380.7" stroke="none">6 PM</text><g></g><text text-anchor="middle" x="570.3" y="380.7" stroke="none">9 PM</text><g></g><text text-anchor="middle" x="634.9" y="380.7" stroke="none">12 AM</text><g fill="#666" stroke="none"><text text-anchor="end" x="71" y="366.5">8°C</text><text x="682" y="366.5">8°C</text><text text-anchor="end" x="71" y="339.5">10°C</text><text x="682" y="339.5">10°C</text><text text-anchor="end" x="71" y="312.5">12°C</text><text x="682" y="312.5">12°C</text><text text-anchor="end" x="71" y="285.5">14°C</text><text x="682" y="285.5">14°C</text><text text-anchor="end" x="71" y="258.5">16°C</text><text x="682" y="258.5">16°C</text><text text-anchor="end" x="71" y="231.5">18°C</text><text x="682" y="231.5">18°C</text><text text-anchor="end" x="71" y="204.5">20°C</text><text x="682" y="204.5">20°C</text><text text-anchor="end" x="71" y="177.5">22°C</text><text x="682" y="177.5">22°C</text><text text-anchor="end" x="71" y="150.5">24°C</text><text x="682" y="150.5">24°C</text><text text-anchor="end" x="71" y="123.5">26°C</text><text x="682" y="123.5">26°C</text><text text-anchor="end" x="71" y="96.5">28°C</text><text x="682" y="96.5">28°C</text><text text-anchor="end" x="71" y="69.5">30°C</text><text x="682" y="69.5">30°C</text><text text-anchor="end" x="71" y="42.5">32°C</text><text x="682" y="42.5">32°C</text></g><rect x="85.8" width="32.3" y="5" fill="#fff" fill-opacity="0.000" stroke="none" height="25"></rect><g><rect x="85.8" width="32.3" y="30" fill="#fff" fill-opacity="0.004" stroke="none" height="335"></rect><path stroke-opacity="0.3" d="M109.4,212.5L94.4,197.5L109.4,182.5" stroke-linejoin="round" stroke-width="5" fill="none" stroke="#000" stroke-linecap="round"></path><path stroke-opacity="0.6" d="M109.4,212.5L94.4,197.5L109.4,182.5" stroke-linejoin="round" stroke-width="3" fill="none" stroke="#fff" stroke-linecap="round"></path><line stroke-opacity="0.5019607843137255" y1="30" x1="118.1" y2="365" x2="118.1" stroke-width="0.5" fill="none" stroke="#000"></line></g><rect x="634.9" width="32.3" y="5" fill="#fff" fill-opacity="0.000" stroke="none" height="25"></rect><g><rect x="634.9" width="32.3" y="30" fill="#fff" fill-opacity="0.004" stroke="none" height="335"></rect><path stroke-opacity="0.3" d="M643.6,212.5L658.6,197.5L643.6,182.5" stroke-linejoin="round" stroke-width="5" fill="none" stroke="#000" stroke-linecap="round"></path><path stroke-opacity="0.6" d="M643.6,212.5L658.6,197.5L643.6,182.5" stroke-linejoin="round" stroke-width="3" fill="none" stroke="#fff" stroke-linecap="round"></path><line stroke-opacity="0.5019607843137255" y1="30" x1="634.9" y2="365" x2="634.9" stroke-width="0.5" fill="none" stroke="#000"></line></g><g font-weight="normal" text-decoration="none" font-size="15" font-family="sans-serif" font-style="normal"><g font-weight="normal" text-decoration="none" font-size="15" font-family="sans-serif" font-style="normal" stroke="none"><g stroke-linejoin="bevel" stroke-width="4" opacity="0.4" fill="#fff" stroke="#fff"><text text-anchor="middle" x="398" y="92.7">1:00 PM</text><text text-anchor="middle" x="398" y="111.3">26.0°C</text></g><text text-anchor="middle" x="398" y="92.7">1:00 PM</text><text text-anchor="middle" x="398" y="111.3">26.0°C</text></g></g><circle r="2" cx="398" cy="118.5" fill="#ba4545" stroke="none"></circle><g font-weight="normal" text-decoration="none" font-size="15" font-family="sans-serif" font-style="normal"><g font-weight="normal" text-decoration="none" font-size="15" font-family="sans-serif" font-style="normal" stroke="none"><g stroke-linejoin="bevel" stroke-width="4" opacity="0.4" fill="#fff" stroke="#fff"><text text-anchor="middle" x="268.8" y="311.3">13.0°C</text><text text-anchor="middle" x="268.8" y="329.9">7:00 AM</text></g><text text-anchor="middle" x="268.8" y="311.3">13.0°C</text><text text-anchor="middle" x="268.8" y="329.9">7:00 AM</text></g></g><circle r="2" cx="268.8" cy="294" fill="#4646b9" stroke="none"></circle></svg>